<?xml version="1.0" encoding="UTF-8"?>
<svg id="Layer_2" data-name="Layer 2" xmlns="http://www.w3.org/2000/svg" viewBox="0 0 1304.99 150.83">
  <defs>
    <style>
      .cls-1 {
        fill: #fff;
      }
    </style>
  </defs>
  <g id="Layer_1-2" data-name="Layer 1">
    <g>
      <polygon class="cls-1" points="283.24 84.35 254.15 84.35 254.15 55.26 239.17 55.26 239.17 129.15 254.01 129.15 254.01 96.86 283.24 96.86 283.24 129.15 298.23 129.15 298.23 55.26 283.24 55.26 283.24 84.35"/>
      <rect class="cls-1" x="313.5" y="75.62" width="14.11" height="53.53"/>
      <rect class="cls-1" x="313.5" y="55.26" width="14.11" height="13.09"/>
      <path class="cls-1" d="m360.77,76.06c-1.89,1.16-3.93,3.49-6.11,7.13v-7.56h-13.09v53.53h14.11v-16.73c0-9.02.44-14.98,1.16-17.89.73-2.91,1.89-4.8,3.2-5.96,1.45-1.02,3.05-1.6,5.09-1.6s4.36.73,6.69,2.33l4.36-12.36c-2.91-1.75-6.11-2.62-9.31-2.62-2.33,0-4.36.58-6.11,1.75Z"/>
      <rect class="cls-1" x="382.3" y="55.26" width="14.11" height="13.09"/>
      <rect class="cls-1" x="382.3" y="75.62" width="14.11" height="53.53"/>
      <path class="cls-1" d="m456.2,80.57c-1.31-1.75-3.2-3.2-5.82-4.36-2.62-1.16-5.53-1.75-8.58-1.75-7.13,0-12.95,2.91-17.6,9.02v-7.85h-13.09v53.67h14.11v-24.29c0-6.11.29-10.18,1.02-12.36.73-2.33,2.18-4.07,4.07-5.38,1.89-1.31,4.07-2.04,6.55-2.04,1.89,0,3.64.58,4.95,1.45,1.31.87,2.33,2.18,2.91,3.93.58,1.75.87,5.38.87,11.2v27.35h14.11v-33.16c0-4.07-.15-7.27-.73-9.45-.58-2.18-1.45-4.22-2.76-5.96Z"/>
      <path class="cls-1" d="m510.02,83.19c-4.36-5.82-9.89-8.73-16.44-8.73s-11.78,2.33-16.15,7.13c-4.36,4.65-6.55,11.49-6.55,20.51,0,7.13,1.6,13.09,4.95,17.89,4.07,6.11,9.89,9.16,17.02,9.16,6.4,0,11.78-2.91,16-8.73v7.85c0,3.2-.29,5.38-.73,6.55-.58,1.75-1.45,2.91-2.76,3.64-1.89,1.02-4.65,1.6-8.29,1.6-2.91,0-5.09-.44-6.4-1.45-1.02-.73-1.6-2.04-1.89-3.93l-16.15-2.04c0,.73,0,1.31.15,1.75,0,4.8,1.89,8.73,5.67,11.78,3.78,3.05,10.33,4.65,19.35,4.65,4.8,0,8.73-.44,11.93-1.45,3.2-1.02,5.67-2.47,7.56-4.22,1.89-1.89,3.35-4.36,4.36-7.42,1.02-3.05,1.6-7.85,1.6-14.11v-48h-13.24v7.56Zm-4.51,30.55c-2.33,2.76-5.24,4.07-8.73,4.07-3.2,0-5.96-1.31-8.15-3.93s-3.35-6.84-3.35-12.51,1.16-9.45,3.2-12.22c2.18-2.62,5.09-3.93,8.44-3.93s6.4,1.45,8.73,4.07c2.33,2.76,3.49,6.84,3.49,12.36s-1.31,9.31-3.64,12.07Z"/>
      <path class="cls-1" d="m547.98,59.62l-23.56,69.53h9.31l7.27-21.82h24.44l7.42,21.82h9.6l-23.71-69.53h-10.76Zm-5.09,40.58l6.84-20.07c1.31-4.36,2.47-8.58,3.49-12.66h.15c1.02,3.93,2.04,8.15,3.64,12.66l6.84,20.07h-20.95Z"/>
      <path class="cls-1" d="m617.22,78.1c-8.29,0-14.11,4.65-16.58,9.45h-.15l-.58-8.29h-8c.29,4.07.44,8.44.44,13.53h.15v36.36h9.02v-29.96c0-1.6.15-3.05.58-4.22,1.6-5.09,6.25-9.31,12.22-9.31,8.44,0,11.49,6.69,11.49,14.69v28.8h9.02v-29.82c0-17.16-10.62-21.24-17.6-21.24Z"/>
      <path class="cls-1" d="m660.13,64.86l-8.73,2.47v11.93h-7.71v7.27h7.71v27.2c0,5.82.87,10.33,3.49,12.95,2.18,2.47,5.53,3.78,9.75,3.78,3.49,0,6.25-.58,8-1.31l-.44-6.84c-1.16.29-2.91.58-5.24.58-5.09,0-6.84-3.49-6.84-9.75v-26.91h12.95v-6.98h-12.95v-14.4Z"/>
      <path class="cls-1" d="m688.93,121.73c2.33-2.62,4.36-5.09,6.4-7.85l22.26-28.95.15-5.67h-38.11v7.27h27.06v.29c-2.33,2.62-4.36,5.09-6.55,7.71l-22.55,29.38v5.24h40.58v-7.27h-29.24v-.15Z"/>
      <path class="cls-1" d="m769.48,104.46c0,5.84-.43,9.75-1.3,11.73-.86,1.98-2.33,3.5-4.41,4.58-2.07,1.08-4.97,1.62-8.68,1.62-3.93,0-7.05-.66-9.36-1.97-2.31-1.31-3.79-3.09-4.44-5.33s-.97-5.72-.97-10.44v-42.19h-14.32v42.19c0,8.47,1.1,14.35,3.3,17.66,2.2,3.3,5.45,5.7,9.75,7.17,4.3,1.48,9.36,2.22,15.19,2.22,7.52,0,13.51-1.18,17.98-3.54,4.47-2.36,7.32-5.33,8.55-8.92s1.85-8.7,1.85-15.34v-41.44h-13.15v41.99Z"/>
      <polygon class="cls-1" points="844.84 111.48 815.76 62.47 798.51 62.47 798.51 130.46 810.76 130.46 810.76 76.02 843.41 130.46 857.08 130.46 857.08 62.47 844.84 62.47 844.84 111.48"/>
      <rect class="cls-1" x="873.54" y="62.47" width="14.64" height="67.99"/>
      <polygon class="cls-1" points="928.39 116.71 911.54 62.47 896.15 62.47 919 130.46 934.86 130.61 958.22 62.47 945.29 62.47 928.39 116.71"/>
      <polygon class="cls-1" points="980.84 99.98 1009.09 99.98 1009.09 90.91 980.84 90.91 980.84 71.49 1016.86 71.49 1016.86 62.47 966.19 62.47 966.19 130.46 1017.44 130.46 1017.44 121.25 980.84 121.25 980.84 99.98"/>
      <path class="cls-1" d="m1082.04,81.95c0-6.28-2.29-11.09-6.87-14.44-4.58-3.35-11.68-5.03-21.32-5.03h-26.63v67.99h14.64v-28.39h13.78l13.75,28.39h15.88l-16.78-30.73c9.03-3.49,13.54-9.41,13.54-17.78Zm-17.92,8.22c-2.35,2.13-6.04,3.19-11.05,3.19h-11.21v-22.17h11.34c9.63,0,14.45,3.55,14.45,10.66,0,3.42-1.18,6.19-3.53,8.32Z"/>
      <path class="cls-1" d="m1141.26,95.4c-3.24-1.59-7.86-3.27-13.87-5.03-7.04-2.06-11.74-3.83-14.09-5.31-2.36-1.48-3.53-3.47-3.53-5.97,0-2.27,1.05-4.27,3.14-6.02,2.09-1.75,5.06-2.62,8.91-2.62,4.15,0,7.42.86,9.82,2.58,2.4,1.72,4.33,4.38,5.8,7.98l12.5-3.34c-3.97-10.96-13.15-16.44-27.54-16.44-8.12,0-14.63,1.84-19.53,5.53-4.9,3.69-7.35,8.24-7.35,13.65,0,3.55,1.1,6.72,3.3,9.51,2.2,2.79,4.87,4.9,8,6.33,3.13,1.43,8.24,3.17,15.32,5.23,6.69,1.96,10.88,3.8,12.57,5.53,1.68,1.73,2.53,3.6,2.53,5.63,0,2.76-1.22,5.07-3.66,6.95-2.44,1.88-6.02,2.81-10.72,2.81-9.63,0-15.59-4.18-17.88-12.55l-13.09,2.84c3.89,12.69,14,19.03,30.32,19.03,9.46,0,16.81-2.01,22.06-6.03,5.25-4.02,7.87-8.88,7.87-14.59,0-3.52-1-6.62-3.01-9.29-2.01-2.67-4.63-4.81-7.87-6.4Z"/>
      <rect class="cls-1" x="1165.1" y="62.47" width="14.64" height="67.99"/>
      <polygon class="cls-1" points="1186.1 72.03 1205.73 72.03 1205.73 130.46 1220.37 130.46 1220.37 72.03 1240.13 72.03 1240.13 62.47 1186.1 62.47 1186.1 72.03"/>
      <polygon class="cls-1" points="1290.97 62.47 1274.45 90.82 1258.18 62.47 1242.27 62.47 1265.79 101.72 1265.79 130.46 1280.43 130.46 1280.43 101.72 1304.99 62.47 1290.97 62.47"/>
      <path class="cls-1" d="m217.42,41.99L126.63,3.31c-10.35-4.41-22.01-4.41-32.36,0L3.54,41.96c-4.76,2.03-4.71,8.89.07,10.84l11.26,4.61v42.64s-6.94,1.28-6.94,9.54c0,7.19,7.02,9.69,7.02,9.69l-5.87,28.63c-.32,1.55.89,2.98,2.45,2.9l20.69-1.07c1.55-.08,2.61-1.6,2.19-3.11l-7.61-26.98s6.71-3.74,6.71-8.8c0-8.75-6.71-10.56-6.71-10.56v-37.99l72.78,29.81c7.29,2.99,15.45,2.98,22.73-.03l95.04-39.26c4.77-1.97,4.81-8.82.06-10.84Z"/>
      <path class="cls-1" d="m41.31,82.25v32.34c0,7.46,3.71,14.43,9.91,18.44,10.96,7.09,30.9,16.57,59.23,16.57,34.34,0,56.1-13.78,65.82-21.75,3.76-3.08,5.92-7.74,5.92-12.65v-32.94s-54.72,23.63-74.12,23.33c-17.65-.28-66.75-23.33-66.75-23.33Z"/>
    </g>
  </g>
</svg>