<?xml version="1.0" encoding="utf-8"?>
<!-- Generator: Adobe Illustrator 26.0.2, SVG Export Plug-In . SVG Version: 6.00 Build 0)  -->
<svg version="1.1" id="Layer_1" xmlns="http://www.w3.org/2000/svg" xmlns:xlink="http://www.w3.org/1999/xlink" x="0px" y="0px"
	 viewBox="0 0 480 153" style="enable-background:new 0 0 480 153;" xml:space="preserve">
<style type="text/css">
	.st0{fill:#2C2C2C;}
	.st1{enable-background:new    ;}
</style>
<path class="st0" d="M135.7,36.7c0-1.6-0.1-3.1-0.4-4.7c-1.9-10.7-7.7-18.7-16.6-24.4c-6.7-4.3-14.6-6.4-22.6-6.2
	c-14,0.1-27.9,0-41.9,0H1.4v1.4c0,32.3,0,64.7-0.1,97c-0.1,5,1.1,10,3.4,14.5c7.1,13.3,18.4,20.3,33.1,21.1
	c10.5,0.5,21,0.2,31.5,0.2c21.6,0,43.2,0,64.8,0h1.5v-1.8C135.7,101.3,135.7,69,135.7,36.7z M122,133.6l-2.9-10.6H101l-2.9,10.6
	H86.3v-19.3H66.5v19.3H55.7V85.8h10.7v18.9h19.8V85.8h10.9v17.3l6.2-17.5h13.4l17,47.9L122,133.6z"/>
<polygon class="st0" points="103.3,114.6 116.8,114.6 110,94.2 "/>
<g class="st1">
	<path class="st0" d="M149.7,135.3V84.5h10.3v20H180v-20h10.3v50.8H180v-22.2h-20.1v22.2H149.7z"/>
	<path class="st0" d="M200.8,93.5v-9h9.7v9H200.8z M200.8,135.3V98.5h9.7v36.8H200.8z"/>
	<path class="st0" d="M229.8,135.3h-9.7V98.5h9v5.2c1.5-2.5,2.9-4.1,4.2-4.9c1.2-0.8,2.6-1.2,4.2-1.2c2.2,0,4.4,0.6,6.4,1.8l-3,8.5
		c-1.6-1.1-3.2-1.6-4.6-1.6c-1.4,0-2.5,0.4-3.5,1.1c-0.9,0.8-1.7,2.1-2.2,4.1c-0.5,2-0.8,6.1-0.8,12.3V135.3z"/>
	<path class="st0" d="M248.1,93.5v-9h9.7v9H248.1z M248.1,135.3V98.5h9.7v36.8H248.1z"/>
	<path class="st0" d="M301.3,135.3h-9.7v-18.8c0-4-0.2-6.5-0.6-7.7c-0.4-1.2-1.1-2.1-2-2.7c-0.9-0.6-2.1-1-3.4-1
		c-1.7,0-3.2,0.5-4.5,1.4c-1.3,0.9-2.3,2.1-2.8,3.7c-0.5,1.5-0.7,4.3-0.7,8.5v16.7h-9.7V98.5h9v5.4c3.2-4.2,7.2-6.2,12.1-6.2
		c2.1,0,4.1,0.4,5.9,1.2s3.1,1.8,4,3c0.9,1.2,1.5,2.6,1.9,4.1c0.4,1.5,0.5,3.7,0.5,6.5V135.3z"/>
	<path class="st0" d="M310.2,137.7l11.1,1.4c0.2,1.3,0.6,2.2,1.3,2.7c0.9,0.7,2.4,1,4.4,1c2.5,0,4.4-0.4,5.7-1.1
		c0.9-0.5,1.5-1.3,1.9-2.5c0.3-0.8,0.5-2.3,0.5-4.5v-5.4c-2.9,4-6.6,6-11,6c-4.9,0-8.9-2.1-11.7-6.3c-2.3-3.3-3.4-7.4-3.4-12.3
		c0-6.2,1.5-10.9,4.5-14.1c3-3.3,6.7-4.9,11.1-4.9c4.5,0,8.3,2,11.3,6v-5.2h9.1v33c0,4.3-0.4,7.6-1.1,9.7c-0.7,2.1-1.7,3.8-3,5.1
		c-1.3,1.2-3,2.2-5.2,2.9c-2.2,0.7-4.9,1-8.2,1c-6.2,0-10.7-1.1-13.3-3.2c-2.6-2.1-3.9-4.8-3.9-8.1
		C310.2,138.6,310.2,138.2,310.2,137.7z M318.9,116.2c0,3.9,0.8,6.8,2.3,8.6c1.5,1.8,3.4,2.7,5.6,2.7c2.4,0,4.4-0.9,6-2.8
		c1.6-1.9,2.5-4.6,2.5-8.3c0-3.8-0.8-6.6-2.4-8.5c-1.6-1.8-3.6-2.8-6-2.8c-2.3,0-4.3,0.9-5.8,2.7
		C319.7,109.7,318.9,112.4,318.9,116.2z"/>
</g>
<g class="st1">
	<path class="st0" d="M357.2,120.3l-5,15h-6.4l16.2-47.8h7.4l16.3,47.8h-6.6l-5.1-15H357.2z M372.9,115.4l-4.7-13.8
		c-1.1-3.1-1.8-6-2.5-8.7h-0.1c-0.7,2.8-1.5,5.7-2.4,8.7l-4.7,13.8H372.9z"/>
	<path class="st0" d="M392.5,110.3c0-3.5-0.1-6.5-0.3-9.3h5.5l0.4,5.7h0.1c1.7-3.3,5.7-6.5,11.4-6.5c4.8,0,12.1,2.8,12.1,14.6v20.5
		h-6.2v-19.8c0-5.5-2.1-10.1-7.9-10.1c-4.1,0-7.3,2.9-8.4,6.4c-0.3,0.8-0.4,1.8-0.4,2.9v20.6h-6.2V110.3z"/>
	<path class="st0" d="M439.1,91.1v9.9h8.9v4.8h-8.9v18.5c0,4.3,1.2,6.7,4.7,6.7c1.6,0,2.8-0.2,3.6-0.4l0.3,4.7
		c-1.2,0.5-3.1,0.9-5.5,0.9c-2.9,0-5.2-0.9-6.7-2.6c-1.8-1.8-2.4-4.9-2.4-8.9v-18.7h-5.3V101h5.3v-8.2L439.1,91.1z"/>
	<path class="st0" d="M451.1,131.7l15.5-20.2c1.5-1.8,2.9-3.5,4.5-5.3V106h-18.6v-5h26.2l-0.1,3.9l-15.3,19.9
		c-1.4,1.9-2.8,3.6-4.4,5.4v0.1H479v5h-27.9V131.7z"/>
</g>
</svg>
