<?xml version="1.0" encoding="utf-8"?>
<!-- Generator: Adobe Illustrator 27.1.1, SVG Export Plug-In . SVG Version: 6.00 Build 0)  -->
<svg version="1.1" id="Layer_1" xmlns="http://www.w3.org/2000/svg" xmlns:xlink="http://www.w3.org/1999/xlink" x="0px" y="0px"
	 viewBox="0 0 480 153" style="enable-background:new 0 0 480 153;" xml:space="preserve">
<style type="text/css">
	.st0{fill:#FCFCFC;}
</style>
<g>
	<polygon class="st0" points="-236.7,-103.5 -265.8,-103.5 -265.8,-132.6 -280.7,-132.6 -280.7,-58.7 -265.9,-58.7 -265.9,-91 
		-236.7,-91 -236.7,-58.7 -221.7,-58.7 -221.7,-132.6 -236.7,-132.6 	"/>
	<rect x="-206.4" y="-112.2" class="st0" width="14.1" height="53.5"/>
	<rect x="-206.4" y="-132.6" class="st0" width="14.1" height="13.1"/>
	<path class="st0" d="M-159.1-111.8c-1.9,1.2-3.9,3.5-6.1,7.1v-7.6h-13.1v53.5h14.1v-16.7c0-9,0.4-15,1.2-17.9
		c0.7-2.9,1.9-4.8,3.2-6c1.5-1,3.1-1.6,5.1-1.6c2,0,4.4,0.7,6.7,2.3l4.4-12.4c-2.9-1.7-6.1-2.6-9.3-2.6
		C-155.4-113.5-157.4-113-159.1-111.8z"/>
	<rect x="-137.6" y="-132.6" class="st0" width="14.1" height="13.1"/>
	<rect x="-137.6" y="-112.2" class="st0" width="14.1" height="53.5"/>
	<path class="st0" d="M-63.7-107.3c-1.3-1.7-3.2-3.2-5.8-4.4c-2.6-1.2-5.5-1.7-8.6-1.7c-7.1,0-12.9,2.9-17.6,9v-7.9h-13.1v53.7h14.1
		v-24.3c0-6.1,0.3-10.2,1-12.4c0.7-2.3,2.2-4.1,4.1-5.4c1.9-1.3,4.1-2,6.5-2c1.9,0,3.6,0.6,4.9,1.5c1.3,0.9,2.3,2.2,2.9,3.9
		c0.6,1.7,0.9,5.4,0.9,11.2v27.3h14.1v-33.2c0-4.1-0.1-7.3-0.7-9.5C-61.5-103.5-62.4-105.5-63.7-107.3z"/>
	<path class="st0" d="M-9.9-104.7c-4.4-5.8-9.9-8.7-16.4-8.7c-6.4,0-11.8,2.3-16.1,7.1c-4.4,4.7-6.5,11.5-6.5,20.5
		c0,7.1,1.6,13.1,4.9,17.9c4.1,6.1,9.9,9.2,17,9.2c6.4,0,11.8-2.9,16-8.7v7.9c0,3.2-0.3,5.4-0.7,6.5c-0.6,1.7-1.5,2.9-2.8,3.6
		c-1.9,1-4.7,1.6-8.3,1.6c-2.9,0-5.1-0.4-6.4-1.5c-1-0.7-1.6-2-1.9-3.9l-16.1-2c0,0.7,0,1.3,0.1,1.7c0,4.8,1.9,8.7,5.7,11.8
		c3.8,3.1,10.3,4.7,19.3,4.7c4.8,0,8.7-0.4,11.9-1.5c3.2-1,5.7-2.5,7.6-4.2c1.9-1.9,3.3-4.4,4.4-7.4c1-3.1,1.6-7.9,1.6-14.1v-48
		H-9.9V-104.7z M-14.4-74.1c-2.3,2.8-5.2,4.1-8.7,4.1c-3.2,0-6-1.3-8.1-3.9s-3.3-6.8-3.3-12.5c0-5.5,1.2-9.5,3.2-12.2
		c2.2-2.6,5.1-3.9,8.4-3.9c3.5,0,6.4,1.5,8.7,4.1c2.3,2.8,3.5,6.8,3.5,12.4C-10.8-80.8-12.1-76.9-14.4-74.1z"/>
	<path class="st0" d="M28.1-128.2L4.5-58.7h9.3l7.3-21.8h24.4l7.4,21.8h9.6l-23.7-69.5H28.1z M23-87.7l6.8-20.1
		c1.3-4.4,2.5-8.6,3.5-12.7h0.1c1,3.9,2,8.1,3.6,12.7l6.8,20.1H23z"/>
	<path class="st0" d="M97.3-109.8c-8.3,0-14.1,4.7-16.6,9.5h-0.1l-0.6-8.3h-8c0.3,4.1,0.4,8.4,0.4,13.5h0.1v36.4h9v-30
		c0-1.6,0.1-3.1,0.6-4.2c1.6-5.1,6.3-9.3,12.2-9.3c8.4,0,11.5,6.7,11.5,14.7v28.8h9v-29.8C114.9-105.7,104.3-109.8,97.3-109.8z"/>
	<path class="st0" d="M140.2-123l-8.7,2.5v11.9h-7.7v7.3h7.7v27.2c0,5.8,0.9,10.3,3.5,12.9c2.2,2.5,5.5,3.8,9.7,3.8
		c3.5,0,6.3-0.6,8-1.3l-0.4-6.8c-1.2,0.3-2.9,0.6-5.2,0.6c-5.1,0-6.8-3.5-6.8-9.7v-26.9h12.9v-7h-12.9V-123z"/>
	<path class="st0" d="M169-66v-0.1c2.3-2.6,4.4-5.1,6.4-7.9l22.3-28.9l0.1-5.7h-38.1v7.3h27.1v0.3c-2.3,2.6-4.4,5.1-6.5,7.7
		l-22.5,29.4v5.2h40.6V-66H169z"/>
</g>
<text transform="matrix(1.3008 0 0 1 198.2621 -57.4007)" style="fill:#FFFFFF; font-family:'FranklinGothic-MediumCond'; font-size:102.0096px;">UNIVERSITY</text>
</svg>
